<?xml version="1.0" ?><!DOCTYPE svg  PUBLIC '-//W3C//DTD SVG 1.0//EN'  'http://www.w3.org/TR/2001/REC-SVG-20010904/DTD/svg10.dtd'><svg enable-background="new 0 0 32 32" height="32px" id="Layer_1" version="1.0" viewBox="0 0 32 32" width="32px" xml:space="preserve" xmlns="http://www.w3.org/2000/svg" xmlns:xlink="http://www.w3.org/1999/xlink"><path d="M31.749,8.982v19.383c0,2.003-1.631,3.634-3.635,3.634H3.886c-2.006,0-3.635-1.631-3.635-3.634V8.982  c0-2.004,1.629-3.634,3.635-3.634h7.269c0.669,0,1.211,0.542,1.211,1.211c0,0.669-0.542,1.211-1.211,1.211H3.886  c-0.668,0-1.211,0.543-1.211,1.212v19.383c0,0.667,0.543,1.211,1.211,1.211h24.229c0.668,0,1.213-0.544,1.213-1.211V8.982  c0-0.668-0.545-1.212-1.213-1.212h-7.269c-0.671,0-1.211-0.542-1.211-1.211c0-0.668,0.54-1.211,1.211-1.211h7.269  C30.118,5.348,31.749,6.978,31.749,8.982z M10.801,16.605c-0.475-0.473-1.241-0.473-1.714,0c-0.475,0.474-0.475,1.24,0,1.713  l6.057,6.057c0.237,0.236,0.546,0.355,0.856,0.355c0.309,0,0.621-0.119,0.856-0.355l6.059-6.057c0.473-0.473,0.473-1.24,0-1.713  c-0.475-0.473-1.241-0.473-1.714,0l-3.988,3.989V1.212C17.213,0.542,16.67,0,16,0c-0.669,0-1.211,0.542-1.211,1.212v19.383  L10.801,16.605z"/></svg>