<?xml version="1.0" ?><!DOCTYPE svg  PUBLIC '-//W3C//DTD SVG 1.1//EN'  'http://www.w3.org/Graphics/SVG/1.1/DTD/svg11.dtd'><svg xmlns="http://www.w3.org/2000/svg" xmlns:xlink="http://www.w3.org/1999/xlink" xmlns:serif="http://www.serif.com/" width="100%" height="100%" viewBox="0 0 64 64" version="1.1" xml:space="preserve" style="fill-rule:evenodd;clip-rule:evenodd;stroke-linejoin:round;stroke-miterlimit:2;"><g transform="matrix(1,0,0,1,-428,-168)"><g id="Artboard1" transform="matrix(1,0,0,1,420,0)"><rect x="0" y="0" width="400" height="400" style="fill:none;"/><g transform="matrix(1,0,0,1,-420,0)"><path d="M473.087,172.3L473.069,172.317C471.738,173.648 470.943,175.342 470.678,177.153L457.292,187.77C454.284,187.888 451.398,189.039 449.197,191.24C447.868,192.568 447.348,194.548 447.651,196.843C447.926,198.93 448.891,201.299 450.468,203.597L431.223,227.371C430.901,227.768 430.931,228.345 431.293,228.707C431.654,229.069 432.231,229.099 432.629,228.778L456.418,209.542C458.712,211.113 461.075,212.075 463.157,212.349C465.452,212.652 467.432,212.132 468.76,210.803C470.961,208.603 472.112,205.717 472.23,202.708L482.843,189.327C484.655,189.063 486.347,188.266 487.683,186.931L487.7,186.913C487.712,186.901 487.723,186.89 487.734,186.879C488.756,185.858 489.169,184.339 488.937,182.575C488.634,180.278 487.212,177.518 484.847,175.153C482.482,172.788 479.722,171.366 477.425,171.063C475.661,170.831 474.142,171.244 473.121,172.266L473.121,172.266C473.11,172.277 473.098,172.288 473.087,172.3ZM438.738,221.266L454.774,208.299C454.228,207.845 453.69,207.356 453.167,206.833C452.649,206.314 452.163,205.781 451.712,205.239L438.738,221.266ZM472.582,178.974C472.7,181.006 473.61,183.096 475.257,184.743C475.647,185.133 475.647,185.767 475.257,186.157C474.867,186.548 474.233,186.548 473.843,186.157C471.995,184.31 470.927,182.016 470.651,179.727L458.273,189.544C458.1,189.682 457.886,189.758 457.665,189.761C455.048,189.794 452.519,190.746 450.611,192.654C449.686,193.579 449.423,194.984 449.634,196.582C449.895,198.568 450.889,200.827 452.489,202.994C452.515,203.025 452.538,203.057 452.56,203.09C453.154,203.885 453.83,204.667 454.581,205.419C455.337,206.174 456.124,206.854 456.925,207.451C456.958,207.472 456.99,207.496 457.02,207.521C459.184,209.115 461.437,210.105 463.418,210.366C465.016,210.577 466.421,210.314 467.346,209.389C468.362,208.373 469.107,207.181 469.586,205.893C469.454,205.96 469.307,205.997 469.155,206C464.069,206.097 460.433,203.142 458.738,201.148C458.381,200.727 458.432,200.096 458.852,199.738C459.273,199.381 459.904,199.432 460.262,199.852C461.652,201.488 464.568,203.901 468.654,203.999L481.531,187.763C481.563,187.722 481.599,187.683 481.638,187.648C479.78,187.01 477.783,185.766 476.008,183.992C474.427,182.411 473.268,180.653 472.582,178.974ZM474.535,173.68C475.153,173.062 476.096,172.906 477.163,173.046C479.112,173.303 481.427,174.561 483.433,176.567C485.439,178.573 486.697,180.888 486.954,182.837C487.094,183.904 486.938,184.847 486.32,185.465C485.702,186.083 484.759,186.239 483.692,186.098C481.743,185.842 479.429,184.584 477.422,182.578C475.416,180.571 474.158,178.257 473.902,176.308C473.761,175.241 473.917,174.298 474.535,173.68L474.535,173.68Z"/></g></g></g></svg>