<?xml version="1.0" ?><svg data-name="Layer 1" id="Layer_1" viewBox="0 0 70 70" xmlns="http://www.w3.org/2000/svg" xmlns:xlink="http://www.w3.org/1999/xlink"><defs><style>.cls-1,.cls-12,.cls-7{fill:none;}.cls-2{fill:#dee1e5;}.cls-3{fill:#fff;}.cls-4{fill:#ef3d3d;}.cls-5{fill:#ff7e7e;}.cls-6{fill:#ffd41f;}.cls-12,.cls-7{stroke:#1a1a1a;stroke-width:1.5px;}.cls-7{stroke-linecap:round;stroke-linejoin:round;}.cls-8{fill:url(#New_Pattern_Swatch_4);}.cls-9{fill:url(#New_Pattern_Swatch_5);}.cls-10{fill:url(#New_Pattern_Swatch_2);}.cls-11{fill:url(#New_Pattern_Swatch_3);}.cls-12{stroke-miterlimit:10;}.cls-13{fill:url(#New_Pattern_Swatch_3-3);}.cls-14{fill:url(#New_Pattern_Swatch_2-3);}.cls-15{fill:url(#New_Pattern_Swatch_3-5);}.cls-16{fill:url(#New_Pattern_Swatch_3-7);}</style><pattern data-name="New Pattern Swatch 4" height="23.5" id="New_Pattern_Swatch_4" patternTransform="translate(-21.19 -10.4) scale(0.97)" patternUnits="userSpaceOnUse" viewBox="0 0 23.5 23.5" width="23.5"><rect class="cls-1" height="23.5" width="23.5"/><rect class="cls-4" height="23.5" width="23.5"/></pattern><pattern data-name="New Pattern Swatch 5" height="23.5" id="New_Pattern_Swatch_5" patternTransform="translate(-21.19 -10.4) scale(0.97)" patternUnits="userSpaceOnUse" viewBox="0 0 23.5 23.5" width="23.5"><rect class="cls-1" height="23.5" width="23.5"/><rect class="cls-5" height="23.5" width="23.5"/></pattern><pattern data-name="New Pattern Swatch 2" height="23.5" id="New_Pattern_Swatch_2" patternTransform="translate(-52.34 -120.96) scale(0.99 1.17)" patternUnits="userSpaceOnUse" viewBox="0 0 23.5 23.5" width="23.5"><rect class="cls-1" height="23.5" width="23.5"/><rect class="cls-2" height="23.5" width="23.5"/></pattern><pattern data-name="New Pattern Swatch 3" height="23.5" id="New_Pattern_Swatch_3" patternTransform="translate(-52.34 -120.96) scale(0.99 1.17)" patternUnits="userSpaceOnUse" viewBox="0 0 23.5 23.5" width="23.5"><rect class="cls-1" height="23.5" width="23.5"/><rect class="cls-3" height="23.5" width="23.5"/></pattern><pattern data-name="New Pattern Swatch 3" height="23.5" id="New_Pattern_Swatch_3-3" patternTransform="translate(-35.16 -91.94) scale(0.64 0.75)" patternUnits="userSpaceOnUse" viewBox="0 0 23.5 23.5" width="23.5"><rect class="cls-1" height="23.5" width="23.5"/><rect class="cls-3" height="23.5" width="23.5"/></pattern><pattern data-name="New Pattern Swatch 2" height="23.5" id="New_Pattern_Swatch_2-3" patternTransform="translate(-49.67 -120.96) scale(0.99 1.17)" patternUnits="userSpaceOnUse" viewBox="0 0 23.5 23.5" width="23.5"><rect class="cls-1" height="23.5" width="23.5"/><rect class="cls-2" height="23.5" width="23.5"/></pattern><pattern data-name="New Pattern Swatch 3" height="23.5" id="New_Pattern_Swatch_3-5" patternTransform="translate(-49.67 -120.96) scale(0.99 1.17)" patternUnits="userSpaceOnUse" viewBox="0 0 23.5 23.5" width="23.5"><rect class="cls-1" height="23.5" width="23.5"/><rect class="cls-3" height="23.5" width="23.5"/></pattern><pattern data-name="New Pattern Swatch 3" height="23.5" id="New_Pattern_Swatch_3-7" patternTransform="matrix(-0.64, 0, 0, 0.75, -3.76, -91.94)" patternUnits="userSpaceOnUse" viewBox="0 0 23.5 23.5" width="23.5"><rect class="cls-1" height="23.5" width="23.5"/><rect class="cls-3" height="23.5" width="23.5"/></pattern></defs><title/><path class="cls-6" d="M67,36.63A32,32,0,1,1,50.28,6.88,32.15,32.15,0,0,1,67,36.63Z"/><circle class="cls-7" cx="35" cy="35" r="32"/><path class="cls-8" d="M52.44,44.58A17.82,17.82,0,0,1,35,60.5a17.23,17.23,0,0,1-12-4.94,17.39,17.39,0,0,0,7.7,1.78,18,18,0,0,0,14.67-7.73A21.15,21.15,0,0,0,52.44,44.58Z"/><path class="cls-9" d="M45.33,49.61a18,18,0,0,1-14.67,7.73A17.39,17.39,0,0,1,23,55.56a18.57,18.57,0,0,1-5.41-11A23.71,23.71,0,0,0,35,51.77,25.23,25.23,0,0,0,45.33,49.61Z"/><path class="cls-7" d="M52.45,44.58A17.85,17.85,0,0,1,35,60.51,17.85,17.85,0,0,1,17.55,44.58,23.7,23.7,0,0,0,35,51.76,23.7,23.7,0,0,0,52.45,44.58Z"/><path class="cls-10" d="M29.66,26.32c0,5-3.44,9-7.68,9-3.39,0-6.26-2.58-7.28-6.16a6.91,6.91,0,0,0,4.19,1.45c4.23,0,7.67-4,7.67-9a10.62,10.62,0,0,0-.39-2.86A9.54,9.54,0,0,1,29.66,26.32Z"/><path class="cls-11" d="M26.56,21.6c0,5-3.44,9-7.67,9a6.91,6.91,0,0,1-4.19-1.45,10.29,10.29,0,0,1-.4-2.86c0-5,3.44-9,7.68-9a6.9,6.9,0,0,1,4.19,1.46A10.62,10.62,0,0,1,26.56,21.6Z"/><ellipse cx="23.35" cy="25.8" rx="3.58" ry="4.2"/><ellipse class="cls-12" cx="21.98" cy="26.31" rx="7.68" ry="9.03"/><ellipse class="cls-13" cx="24.41" cy="25.25" rx="1.13" ry="1.53"/><path class="cls-14" d="M55.7,26.32c0,5-3.44,9-7.68,9-3.39,0-6.27-2.58-7.28-6.16a6.91,6.91,0,0,0,4.19,1.45c4.23,0,7.67-4,7.67-9a10.62,10.62,0,0,0-.39-2.86A9.57,9.57,0,0,1,55.7,26.32Z"/><path class="cls-15" d="M52.6,21.6c0,5-3.44,9-7.67,9a6.91,6.91,0,0,1-4.19-1.45,10.29,10.29,0,0,1-.4-2.86c0-5,3.44-9,7.68-9a6.9,6.9,0,0,1,4.19,1.46A10.62,10.62,0,0,1,52.6,21.6Z"/><ellipse class="cls-12" cx="48.02" cy="26.31" rx="7.68" ry="9.03"/><ellipse cx="46.47" cy="25.8" rx="3.58" ry="4.2"/><ellipse class="cls-16" cx="45.41" cy="25.25" rx="1.13" ry="1.53"/></svg>